<svg xmlns="http://www.w3.org/2000/svg" style="display: none;">
  <symbol id="icon-check-circle" viewBox="0 0 47 47">
<path d="M23.292 0.202881C10.4482 0.202881 0.0419922 10.7029 0.0419922 23.4529C0.0419922 36.2966 10.4482 46.7029 23.292 46.7029C36.042 46.7029 46.542 36.2966 46.542 23.4529C46.542 10.7029 36.042 0.202881 23.292 0.202881ZM23.292 43.7029C12.1357 43.7029 3.04199 34.7029 3.04199 23.4529C3.04199 12.3904 12.042 3.20288 23.292 3.20288C34.3545 3.20288 43.542 12.2966 43.542 23.4529C43.542 34.6091 34.4482 43.7029 23.292 43.7029ZM36.5107 18.0154C36.9795 17.5466 36.9795 16.7966 36.5107 16.4216L35.7607 15.5779C35.292 15.1091 34.542 15.1091 34.167 15.5779L18.792 30.7654L12.3232 24.2966C11.9482 23.8279 11.1982 23.8279 10.7295 24.2966L9.97949 25.0466C9.51074 25.5154 9.51074 26.1716 9.97949 26.6404L18.042 34.7966C18.417 35.1716 19.167 35.1716 19.6357 34.7966L36.5107 18.0154Z" fill="#E27730"/>
  </symbol>
  <symbol id="icon-envelope" viewBox="0 0 49 37">
<path d="M44.383 0.808105H5.383C2.85175 0.808105 0.882996 2.87061 0.882996 5.30811V32.3081C0.882996 34.8394 2.85175 36.8081 5.383 36.8081H44.383C46.8205 36.8081 48.883 34.8394 48.883 32.3081V5.30811C48.883 2.87061 46.8205 0.808105 44.383 0.808105ZM5.383 3.80811H44.383C45.133 3.80811 45.883 4.55811 45.883 5.30811V9.24561C43.8205 10.9331 40.8205 13.3706 31.7267 20.5894C30.133 21.9019 27.0392 24.9019 24.883 24.8081C22.633 24.9019 19.5392 21.9019 17.9455 20.5894C8.85175 13.3706 5.85175 10.9331 3.883 9.24561V5.30811C3.883 4.55811 4.53925 3.80811 5.383 3.80811ZM44.383 33.8081H5.383C4.53925 33.8081 3.883 33.1519 3.883 32.3081V13.0894C5.9455 14.8706 9.3205 17.5894 16.0705 22.9331C18.0392 24.5269 21.4142 27.9019 24.883 27.8081C28.258 27.9019 31.633 24.5269 33.6017 22.9331C40.3517 17.5894 43.7267 14.8706 45.883 13.0894V32.3081C45.883 33.1519 45.133 33.8081 44.383 33.8081Z" fill="#E27730"/>
  </symbol>
  <symbol id="icon-eye" viewBox="0 0 54 36">
<path d="M27 21C30.2812 21 33 18.375 33 15C33 11.7188 30.2812 9 27 9C26.9062 9 26.8125 9.09375 26.7188 9.09375C26.8125 9.46875 27 10.125 27 10.5938C27 13.0312 24.9375 15.0938 22.5 15.0938C22.0312 15.0938 21.375 14.9062 21 14.8125C21 14.9062 21 15 21 15C21 18.375 23.625 21 27 21ZM53.625 16.6875C48.5625 6.75 38.4375 0 27 0C15.4688 0 5.34375 6.75 0.28125 16.6875C0.09375 17.0625 0 17.625 0 18.0938C0 18.4688 0.09375 19.0312 0.28125 19.4062C5.34375 29.3438 15.4688 36 27 36C38.4375 36 48.5625 29.3438 53.625 19.4062C53.8125 19.0312 53.9062 18.4688 53.9062 18C53.9062 17.625 53.8125 17.0625 53.625 16.6875ZM27 3C33.5625 3 39 8.4375 39 15C39 21.6562 33.5625 27 27 27C20.3438 27 15 21.6562 15 15C15 8.4375 20.3438 3.09375 27 3ZM27 33C16.875 33 7.6875 27.2812 3 18C5.25 13.5938 10.6875 8.15625 15.0938 5.90625C13.125 8.4375 12 11.625 12 15C12 23.3438 18.6562 30 27 30C35.25 30 42 23.3438 42 15C42 11.625 40.7812 8.4375 38.8125 5.90625C43.2188 8.15625 48.6562 13.5938 51 18C46.2188 27.2812 37.0312 33 27 33Z" fill="#E27730"/>
  </symbol>
  <symbol id="icon-id-badge" viewBox="0 0 37 49">
<path d="M30.432 0.808105H6.43201C3.05701 0.808105 0.432007 3.52686 0.432007 6.80811V42.8081C0.432007 46.1831 3.05701 48.8081 6.43201 48.8081H30.432C33.7133 48.8081 36.432 46.1831 36.432 42.8081V6.80811C36.432 3.52686 33.7133 0.808105 30.432 0.808105ZM33.432 42.8081C33.432 44.4956 32.0258 45.8081 30.432 45.8081H6.43201C4.74451 45.8081 3.43201 44.4956 3.43201 42.8081V6.80811C3.43201 5.21436 4.74451 3.80811 6.43201 3.80811H30.432C32.0258 3.80811 33.432 5.21436 33.432 6.80811V42.8081ZM13.932 9.80811H22.932C23.682 9.80811 24.432 9.15186 24.432 8.30811C24.432 7.55811 23.682 6.80811 22.932 6.80811H13.932C13.0883 6.80811 12.432 7.55811 12.432 8.30811C12.432 9.15186 13.0883 9.80811 13.932 9.80811ZM18.432 29.3081C22.557 29.3081 25.932 26.0269 25.932 21.8081C25.932 17.6831 22.557 14.3081 18.432 14.3081C14.2133 14.3081 10.932 17.6831 10.932 21.8081C10.932 26.0269 14.2133 29.3081 18.432 29.3081ZM18.432 17.3081C20.8695 17.3081 22.932 19.3706 22.932 21.8081C22.932 24.3394 20.8695 26.3081 18.432 26.3081C15.9008 26.3081 13.932 24.3394 13.932 21.8081C13.932 19.3706 15.9008 17.3081 18.432 17.3081ZM22.7445 30.8081C20.9633 30.8081 20.4945 31.4644 18.432 31.4644C16.2758 31.4644 15.807 30.8081 14.0258 30.8081C12.057 30.8081 10.0883 31.7456 8.96326 33.4331C8.30701 34.4644 7.93201 35.5894 7.93201 36.9019V40.5581C7.93201 41.0269 8.21326 41.3081 8.68201 41.3081H10.182C10.557 41.3081 10.932 41.0269 10.932 40.5581V36.9019C10.932 35.5894 11.7758 33.8081 14.0258 33.8081C15.1508 33.8081 15.9945 34.4644 18.432 34.4644C20.7758 34.4644 21.6195 33.8081 22.7445 33.8081C25.0883 33.8081 25.932 35.5894 25.932 36.9019V40.5581C25.932 41.0269 26.2133 41.3081 26.682 41.3081H28.182C28.557 41.3081 28.932 41.0269 28.932 40.5581V36.9019C28.932 35.5894 28.4633 34.4644 27.807 33.4331C26.682 31.7456 24.7133 30.8081 22.7445 30.8081Z" fill="#E27730"/>
  </symbol>
  <symbol id="icon-image" viewBox="0 0 49 37">
<path d="M44.389 0.452881H5.38898C2.85773 0.452881 0.888977 2.51538 0.888977 4.95288V31.9529C0.888977 34.4841 2.85773 36.4529 5.38898 36.4529H44.389C46.8265 36.4529 48.889 34.4841 48.889 31.9529V4.95288C48.889 2.51538 46.8265 0.452881 44.389 0.452881ZM45.889 31.9529C45.889 32.7966 45.139 33.4529 44.389 33.4529H5.38898C4.54523 33.4529 3.88898 32.7966 3.88898 31.9529V4.95288C3.88898 4.20288 4.54523 3.45288 5.38898 3.45288H44.389C45.139 3.45288 45.889 4.20288 45.889 4.95288V31.9529ZM11.389 16.2029C14.2015 16.2029 16.639 13.8591 16.639 10.9529C16.639 8.14038 14.2015 5.70288 11.389 5.70288C8.48273 5.70288 6.13898 8.14038 6.13898 10.9529C6.13898 13.8591 8.48273 16.2029 11.389 16.2029ZM11.389 8.70288C12.6077 8.70288 13.639 9.73413 13.639 10.9529C13.639 12.2654 12.6077 13.2029 11.389 13.2029C10.0765 13.2029 9.13898 12.2654 9.13898 10.9529C9.13898 9.73413 10.0765 8.70288 11.389 8.70288ZM30.7952 10.9529L21.889 19.8591L18.889 16.9529C18.0452 16.0154 16.639 16.0154 15.7952 16.9529L7.54523 25.2029C7.17023 25.4841 6.88898 26.2341 6.88898 26.7029V29.3279C6.88898 29.9841 7.35773 30.4529 8.01398 30.4529H41.764C42.3265 30.4529 42.889 29.9841 42.889 29.3279V20.7029C42.889 20.1404 42.6077 19.5779 42.139 19.2029L33.889 10.9529C33.0452 10.0154 31.639 10.0154 30.7952 10.9529ZM39.889 27.4529H9.88898V27.0779L17.389 19.5779L21.889 24.0779L32.389 13.5779L39.889 21.0779V27.4529Z" fill="#E27730"/>
  </symbol>
  <symbol id="icon-paint-brush" viewBox="0 0 48 48">
<path d="M42.6562 0C41.1562 0 39.75 0.65625 38.7188 1.6875C18.2812 19.875 15.8438 20.3438 16.7812 26.4375C12.9375 26.9062 9.46875 28.7812 7.40625 34.125C7.125 34.7812 6.5625 35.1562 5.90625 35.1562C4.6875 35.1562 1.03125 32.25 0 31.5C0 40.3125 4.03125 48 13.6875 48C24.6562 48 27.9375 39.8438 27.2812 34.4062C32.5312 33.75 36.375 28.5 46.5938 9.375C47.3438 7.96875 48 6.46875 48 4.875C48 2.0625 45.375 0 42.6562 0ZM22.125 41.8125C20.25 43.9688 17.4375 45 13.6875 45C7.6875 45 4.96875 41.4375 3.84375 37.6875C4.59375 37.9688 5.25 38.1562 5.90625 38.1562C7.78125 38.1562 9.5625 37.0312 10.2188 35.1562C10.875 33.5625 11.7188 30.0938 18.0938 29.3438L24.1875 34.125C24.5625 36.9375 24.0938 39.5625 22.125 41.8125ZM43.9688 7.96875C32.8125 28.6875 30.4688 30.9375 25.7812 31.5L19.9688 27C19.125 21.75 18.5625 23.7188 40.7812 3.84375C41.3438 3.375 42 3 42.6562 3C43.7812 3 45 3.75 45 4.875C45 5.90625 44.4375 7.03125 43.9688 7.96875Z" fill="#E27730"/>
  </symbol>
  <symbol id="icon-poll" viewBox="0 0 43 43">
<path d="M38.407 0.808105H5.40698C2.87573 0.808105 0.906982 2.87061 0.906982 5.30811V38.3081C0.906982 40.8394 2.87573 42.8081 5.40698 42.8081H38.407C40.8445 42.8081 42.907 40.8394 42.907 38.3081V5.30811C42.907 2.87061 40.8445 0.808105 38.407 0.808105ZM39.907 38.3081C39.907 39.1519 39.157 39.8081 38.407 39.8081H5.40698C4.56323 39.8081 3.90698 39.1519 3.90698 38.3081V5.30811C3.90698 4.55811 4.56323 3.80811 5.40698 3.80811H38.407C39.157 3.80811 39.907 4.55811 39.907 5.30811V38.3081ZM13.657 18.8081H12.157C11.6882 18.8081 11.407 19.1831 11.407 19.5581V33.0581C11.407 33.5269 11.6882 33.8081 12.157 33.8081H13.657C14.032 33.8081 14.407 33.5269 14.407 33.0581V19.5581C14.407 19.1831 14.032 18.8081 13.657 18.8081ZM22.657 9.80811H21.157C20.6882 9.80811 20.407 10.1831 20.407 10.5581V33.0581C20.407 33.5269 20.6882 33.8081 21.157 33.8081H22.657C23.032 33.8081 23.407 33.5269 23.407 33.0581V10.5581C23.407 10.1831 23.032 9.80811 22.657 9.80811ZM31.657 24.8081H30.157C29.6882 24.8081 29.407 25.1831 29.407 25.5581V33.0581C29.407 33.5269 29.6882 33.8081 30.157 33.8081H31.657C32.032 33.8081 32.407 33.5269 32.407 33.0581V25.5581C32.407 25.1831 32.032 24.8081 31.657 24.8081Z" fill="#E27730"/>
  </symbol>
  <symbol id="icon-smile-beam" viewBox="0 0 48 47">
<path d="M16.34 18.7654C17.465 18.7654 18.4962 19.5154 19.2462 20.7341L20.1837 22.3279C20.3712 22.7029 20.7462 22.7966 21.0275 22.7029C21.3087 22.6091 21.59 22.3279 21.59 21.9529C21.215 18.0154 18.4962 15.2029 16.34 15.2029C14.09 15.2029 11.3712 18.0154 11.09 21.9529C10.9962 22.3279 11.2775 22.6091 11.5587 22.7029C11.9337 22.7966 12.3087 22.7029 12.4962 22.3279L13.34 20.7341C14.09 19.5154 15.1212 18.7654 16.34 18.7654ZM23.84 0.202881C10.9962 0.202881 0.589966 10.6091 0.589966 23.4529C0.589966 36.2966 10.9962 46.7029 23.84 46.7029C36.6837 46.7029 47.09 36.2966 47.09 23.4529C47.09 10.6091 36.6837 0.202881 23.84 0.202881ZM23.84 43.7029C12.59 43.7029 3.58997 34.7029 3.58997 23.4529C3.58997 12.2966 12.59 3.20288 23.84 3.20288C34.9962 3.20288 44.09 12.2966 44.09 23.4529C44.09 34.7029 34.9962 43.7029 23.84 43.7029ZM31.34 15.2029C29.09 15.2029 26.3712 18.0154 26.09 21.9529C25.9962 22.3279 26.2775 22.6091 26.5587 22.7029C26.9337 22.7966 27.3087 22.7029 27.4962 22.3279L28.34 20.7341C29.09 19.5154 30.1212 18.7654 31.34 18.7654C32.465 18.7654 33.4962 19.5154 34.2462 20.7341L35.1837 22.3279C35.3712 22.7029 35.7462 22.7966 36.0275 22.7029C36.3087 22.6091 36.59 22.3279 36.59 21.9529C36.215 18.0154 33.4962 15.2029 31.34 15.2029ZM32.2775 30.0154C30.1212 32.5466 27.0275 33.9529 23.84 33.9529C20.5587 33.9529 17.465 32.5466 15.3087 30.0154C14.84 29.3591 13.9025 29.3591 13.2462 29.8279C12.59 30.3904 12.4962 31.3279 13.0587 31.9841C15.6837 35.1716 19.6212 36.9529 23.84 36.9529C27.965 36.9529 31.9025 35.1716 34.5275 31.9841C35.09 31.3279 34.9962 30.3904 34.34 29.8279C33.6837 29.3591 32.7462 29.3591 32.2775 30.0154Z" fill="#E27730"/>
  </symbol>
  <symbol id="icon-swatchbook" viewBox="0 0 48 48">
<path d="M9 40.5C9.75 40.5 10.5 39.8438 10.5 39C10.5 38.25 9.75 37.5 9 37.5C8.15625 37.5 7.5 38.25 7.5 39C7.5 39.8438 8.15625 40.5 9 40.5ZM45 30H30.6562L40.7812 19.9688C41.9062 18.75 41.9062 16.875 40.7812 15.75L32.25 7.21875C31.6875 6.65625 30.9375 6.375 30.1875 6.375C29.4375 6.375 28.5938 6.65625 28.0312 7.21875L18 17.3438V3C18 1.40625 16.5938 0 15 0H3C1.3125 0 0 1.40625 0 3V39C0 44.0625 3.9375 48 9 48H45C46.5938 48 48 46.6875 48 45V33C48 31.4062 46.5938 30 45 30ZM15 39C15 42.375 12.2812 45 9 45C5.625 45 3 42.375 3 39V27H15V39ZM15 24H3V15H15V24ZM15 12H3V3H15V12ZM18 21.5625L30.1875 9.375L38.625 17.8125L18 38.5312V21.5625ZM45 45H15.6562L27.6562 33H45V45Z" fill="#E27730"/>
  </symbol>
</svg>